<?xml version="1.0" encoding="UTF-8"?>
<svg width="700pt" height="700pt" version="1.1"  viewBox="0 0 700 700" xmlns="http://www.w3.org/2000/svg" xmlns:xlink="http://www.w3.org/1999/xlink">
 <defs>

 </defs>
 <g>
  <path d="m539.28 401.52c-33.602-13.441-74.48-22.961-118.72-28-11.199-1.1211-19.602-10.641-19.602-21.84 33.602-16.801 57.121-49.84 61.039-88.48h5.6016c21.84 0 39.199-17.359 39.199-39.199 0-15.68-8.9609-29.121-22.398-35.281l-0.003906-26.32c0-73.918-60.477-134.4-134.4-134.4s-134.4 60.48-134.4 134.4v26.32c-13.441 6.1602-22.398 19.602-22.398 35.281 0 21.84 17.359 39.199 39.199 39.199h6.1602c3.918 38.641 27.438 71.68 61.039 88.48-0.55859 11.199-8.9609 20.16-19.602 21.84-44.238 5.0391-85.121 14.559-118.72 28-38.641 15.121-63.281 52.082-63.281 93.52v25.762c0 6.1602 5.0391 11.199 11.199 11.199h481.6c6.1602 0 11.199-5.0391 11.199-11.199v-25.762c0-41.438-24.641-78.398-62.719-93.52zm-301.28-239.12c0-61.602 50.398-112 112-112s112 50.398 112 112v22.398h-10.078l-11.762-2.2383c-11.199-5.6016-19.039-14.559-20.719-24.641-1.6797-10.641-6.7188-20.16-14.559-28.559l-8.9609-8.9609c-2.8008-3.3594-7.8398-4.4805-11.762-2.8008-20.719 7.2812-47.602 7.2812-68.879 0-3.9219-1.6797-8.9609-0.55859-11.762 2.8008l-8.9609 8.9609c-7.8398 8.3984-12.879 17.922-14.559 28.559-1.6797 10.078-8.9609 19.039-20.719 24.641l-11.203 2.2422h-10.078zm22.398 89.602c0-6.1602-5.0391-11.199-11.199-11.199h-16.801c-9.5195 0-16.801-7.8398-16.801-16.801 0-9.5195 7.2812-16.801 16.801-16.801h16.801 1.6797l14-2.2383c1.1211 0 1.6797-0.55859 2.8008-1.1211 19.039-8.3984 31.922-24.641 34.719-42.559 1.1211-5.6016 3.9219-11.199 8.3984-16.238l3.9219-3.9219c21.84 6.1602 47.602 6.1602 70 0l3.9219 3.9219c4.4805 5.0391 7.2812 10.641 8.3984 16.238 2.8008 17.922 15.68 34.16 34.719 42.559 1.1211 0.55859 1.6797 0.55859 2.8008 1.1211l14 2.2383h1.6797 16.801c9.5195 0 16.801 7.2812 16.801 16.801 0 8.9609-7.2812 16.801-16.801 16.801h-16.801c-6.1602 0-11.199 5.0391-11.199 11.199 0 49.281-40.32 89.602-89.602 89.602-49.277 0-89.039-40.32-89.039-89.602zm131.04 131.04-12.879 20.719c-6.1602 10.078-16.801 15.68-28.559 15.68-11.762 0-22.398-6.1602-28.559-15.68l-12.879-20.719c6.1602-6.1602 10.641-14 12.32-22.961 8.9609 2.2383 19.039 3.9219 29.121 3.9219 10.078 0 19.602-1.1211 29.121-3.9219 1.6719 8.9609 6.1523 16.801 12.312 22.961zm188.16 126.56h-78.402v-33.602c0-6.1602-5.0391-11.199-11.199-11.199s-11.199 5.0391-11.199 11.199v33.602h-257.6v-33.602c0-6.1602-5.0391-11.199-11.199-11.199s-11.199 5.0391-11.199 11.199v33.602h-78.402v-14.559c0-31.922 19.602-61.602 48.719-72.801 31.922-12.32 70.559-21.84 113.12-26.32 2.2383 0 4.4805-0.55859 7.2812-1.1211l13.441 21.281c10.078 16.238 28 26.32 47.602 26.32 9.5195 0 19.039-2.2383 26.879-6.7188 8.3984-4.4805 15.121-11.199 20.16-19.602l13.441-21.281c2.2383 0.55859 4.4805 1.1211 7.2812 1.1211 42 4.4805 81.199 14 113.12 26.32 29.121 11.762 48.719 40.879 48.719 72.801l-0.003906 14.559z"/>
  <use x="70" y="644" xlink:href="#u"/>
  <use x="90.550781" y="644" xlink:href="#b"/>
  <use x="104.359375" y="644" xlink:href="#a"/>
  <use x="123.347656" y="644" xlink:href="#e"/>
  <use x="142.242188" y="644" xlink:href="#d"/>
  <use x="155.628906" y="644" xlink:href="#a"/>
  <use x="174.617188" y="644" xlink:href="#k"/>
  <use x="204.410156" y="644" xlink:href="#j"/>
  <use x="224.453125" y="644" xlink:href="#i"/>
  <use x="252.453125" y="644" xlink:href="#h"/>
  <use x="262.867188" y="644" xlink:href="#g"/>
  <use x="279.46875" y="644" xlink:href="#c"/>
  <use x="298.703125" y="644" xlink:href="#f"/>
  <use x="318.636719" y="644" xlink:href="#t"/>
  <use x="346.5" y="644" xlink:href="#e"/>
  <use x="365.394531" y="644" xlink:href="#b"/>
  <use x="379.203125" y="644" xlink:href="#s"/>
  <use x="70" y="672" xlink:href="#r"/>
  <use x="82.183594" y="672" xlink:href="#b"/>
  <use x="95.992188" y="672" xlink:href="#c"/>
  <use x="115.226562" y="672" xlink:href="#q"/>
  <use x="154.152344" y="672" xlink:href="#d"/>
  <use x="167.535156" y="672" xlink:href="#p"/>
  <use x="187.46875" y="672" xlink:href="#a"/>
  <use x="216.207031" y="672" xlink:href="#o"/>
  <use x="239.640625" y="672" xlink:href="#c"/>
  <use x="258.878906" y="672" xlink:href="#n"/>
  <use x="278.8125" y="672" xlink:href="#f"/>
  <use x="308.492188" y="672" xlink:href="#m"/>
  <use x="329.015625" y="672" xlink:href="#b"/>
  <use x="342.820312" y="672" xlink:href="#c"/>
  <use x="362.058594" y="672" xlink:href="#l"/>
  <use x="371.65625" y="672" xlink:href="#a"/>
  <use x="390.648438" y="672" xlink:href="#g"/>
  <use x="407.242188" y="672" xlink:href="#d"/>
 </g>
</svg>
