<svg width="24" height="24" viewBox="0 0 24 24" fill="none" xmlns="http://www.w3.org/2000/svg">
<path d="M0 12C0 5.37258 5.37258 0 12 0C18.6274 0 24 5.37258 24 12C24 18.6274 18.6274 24 12 24C5.37258 24 0 18.6274 0 12Z" fill="url(#paint0_radial)"/>
<mask id="mask0" mask-type="alpha" maskUnits="userSpaceOnUse" x="0" y="0" width="24" height="24">
<path fill-rule="evenodd" clip-rule="evenodd" d="M0 12C0 5.37258 5.37258 0 12 0C18.6274 0 24 5.37258 24 12C24 18.6274 18.6274 24 12 24C5.37258 24 0 18.6274 0 12Z" fill="white"/>
</mask>
<g mask="url(#mask0)">
<path fill-rule="evenodd" clip-rule="evenodd" d="M12.0006 5.60001C10.2624 5.60001 10.0443 5.60761 9.36161 5.63867C8.68027 5.66987 8.2152 5.77774 7.80827 5.93601C7.38733 6.09948 7.03026 6.31815 6.67452 6.67402C6.31852 7.02975 6.09985 7.38682 5.93585 7.80763C5.77718 8.2147 5.66918 8.6799 5.63851 9.36098C5.60798 10.0437 5.59998 10.2619 5.59998 12.0001C5.59998 13.7382 5.60771 13.9557 5.63864 14.6384C5.66998 15.3197 5.77784 15.7848 5.93598 16.1917C6.09958 16.6127 6.31825 16.9697 6.67412 17.3255C7.02972 17.6815 7.38679 17.9007 7.80747 18.0641C8.21467 18.2224 8.67987 18.3303 9.36108 18.3615C10.0438 18.3925 10.2618 18.4001 11.9998 18.4001C13.7381 18.4001 13.9555 18.3925 14.6382 18.3615C15.3195 18.3303 15.7851 18.2224 16.1924 18.0641C16.6132 17.9007 16.9697 17.6815 17.3253 17.3255C17.6813 16.9697 17.9 16.6127 18.064 16.1918C18.2213 15.7848 18.3293 15.3196 18.3613 14.6385C18.392 13.9558 18.4 13.7382 18.4 12.0001C18.4 10.2619 18.392 10.0438 18.3613 9.36111C18.3293 8.67977 18.2213 8.2147 18.064 7.80776C17.9 7.38682 17.6813 7.02975 17.3253 6.67402C16.9693 6.31801 16.6133 6.09934 16.192 5.93601C15.7839 5.77774 15.3186 5.66987 14.6373 5.63867C13.9546 5.60761 13.7373 5.60001 11.9986 5.60001H12.0006ZM11.7871 6.75329H11.7873L12.0006 6.75335C13.7094 6.75335 13.9119 6.75948 14.5867 6.79015C15.2107 6.81868 15.5494 6.92295 15.775 7.01055C16.0737 7.12655 16.2866 7.26522 16.5105 7.48922C16.7345 7.71322 16.8732 7.92656 16.9894 8.22523C17.077 8.45057 17.1814 8.78924 17.2098 9.41324C17.2405 10.0879 17.2472 10.2906 17.2472 11.9986C17.2472 13.7066 17.2405 13.9093 17.2098 14.584C17.1813 15.208 17.077 15.5466 16.9894 15.772C16.8734 16.0706 16.7345 16.2833 16.5105 16.5072C16.2865 16.7312 16.0738 16.8699 15.775 16.9859C15.5497 17.0739 15.2107 17.1779 14.5867 17.2064C13.9121 17.2371 13.7094 17.2437 12.0006 17.2437C10.2916 17.2437 10.0891 17.2371 9.41442 17.2064C8.79041 17.1776 8.45174 17.0733 8.226 16.9857C7.92733 16.8697 7.714 16.7311 7.49 16.507C7.26599 16.283 7.12733 16.0702 7.01106 15.7714C6.92346 15.5461 6.81906 15.2074 6.79066 14.5834C6.75999 13.9088 6.75386 13.7061 6.75386 11.997C6.75386 10.2879 6.75999 10.0863 6.79066 9.41164C6.81919 8.78764 6.92346 8.44897 7.01106 8.22336C7.12706 7.92469 7.26599 7.71136 7.49 7.48736C7.714 7.26335 7.92733 7.12469 8.226 7.00842C8.45161 6.92042 8.79041 6.81642 9.41442 6.78775C10.0048 6.76108 10.2336 6.75308 11.4264 6.75175V6.75335C11.5379 6.75317 11.6578 6.75323 11.7871 6.75329ZM14.6489 8.58377C14.6489 8.15963 14.9929 7.81603 15.4169 7.81603V7.81576C15.8409 7.81576 16.1849 8.15976 16.1849 8.58377C16.1849 9.00777 15.8409 9.35178 15.4169 9.35178C14.9929 9.35178 14.6489 9.00777 14.6489 8.58377ZM12.0004 8.71336C10.1854 8.71344 8.71387 10.185 8.71387 12.0001C8.71387 13.8152 10.1855 15.2861 12.0006 15.2861C13.8157 15.2861 15.2867 13.8152 15.2867 12.0001C15.2867 10.185 13.8155 8.71336 12.0004 8.71336ZM14.1339 12.0001C14.1339 10.8218 13.1787 9.86672 12.0006 9.86672C10.8223 9.86672 9.86722 10.8218 9.86722 12.0001C9.86722 13.1782 10.8223 14.1334 12.0006 14.1334C13.1787 14.1334 14.1339 13.1782 14.1339 12.0001Z" fill="white"/>
</g>
<defs>
<radialGradient id="paint0_radial" cx="0" cy="0" r="1" gradientUnits="userSpaceOnUse" gradientTransform="translate(4.25 20.25) rotate(-46.3322) scale(22.8104)">
<stop offset="0.0316099" stop-color="#FED374"/>
<stop offset="0.309584" stop-color="#EA554E"/>
<stop offset="0.587517" stop-color="#CF1786"/>
<stop offset="1" stop-color="#4B60B7"/>
</radialGradient>
</defs>
</svg>
